<svg class="icon" viewBox="0 0 1024 1024" xmlns="http://www.w3.org/2000/svg" width="16" height="16"><defs><style/></defs><path d="M512 0c235.634 0 426.667 191.033 426.667 426.667 0 135.793-73.814 277.617-194.247 411.505l-12.374 13.54-12.63 13.369-12.8 13.17-12.941 12.885-13 12.6-6.485 6.145-12.97 12.032-12.886 11.605-12.714 11.094-12.516 10.61-12.231 10.04-11.89 9.387-11.52 8.732a617.566 617.566 0 01-11.036 8.022l-10.525 7.253-9.927 6.428C536.718 1017.116 521.33 1024 512 1024c-8.533 0-22.158-5.831-39.168-16.128l-9.614-6.087a406.898 406.898 0 01-5.063-3.328l-10.496-7.31-11.037-8.079-11.491-8.817-11.89-9.472-6.087-4.978-12.374-10.382-12.629-10.951-12.8-11.464-12.97-11.89a1247.488 1247.488 0 01-6.486-6.115l-12.999-12.515-6.514-6.372-12.942-13-12.828-13.254-12.658-13.483-12.43-13.625C159.175 702.322 85.334 560.84 85.334 426.667 85.333 191.033 276.365 0 512 0zm0 227.556a199.111 199.111 0 100 398.222 199.111 199.111 0 000-398.222zm0 56.888a142.222 142.222 0 110 284.445 142.222 142.222 0 010-284.445z"/></svg>