<svg class="icon" viewBox="0 0 1024 1024" xmlns="http://www.w3.org/2000/svg" width="200" height="200"><defs><style/></defs><path d="M967.111 0A56.889 56.889 0 011024 56.889V967.11A56.889 56.889 0 01967.111 1024H56.89A56.889 56.889 0 010 967.111V56.89A56.889 56.889 0 0156.889 0H967.11zM709.12 230.684l-1.934.342-313.572 89.145A13.824 13.824 0 00384 332.828v127.915l2.56-.768.028 238.194c-14.222-7.51-33.479-9.387-53.105-3.812-34.703 9.87-57.401 39.339-50.717 65.82 6.685 26.511 40.25 39.994 74.951 30.123 29.753-8.448 50.688-31.317 51.826-54.357h2.617V452.722L691.2 373.39l.028 271.53c-13.71-5.802-31.004-6.826-48.611-1.592-34.987 10.354-57.856 41.301-51.115 69.12 6.77 27.819 40.59 41.956 75.577 31.602 34.987-10.354 57.856-41.273 51.115-69.12a40.988 40.988 0 00-1.366-4.41l-.028-432.326c0-5.32-4.295-8.676-9.614-7.168z"/></svg>