<svg class="icon" viewBox="0 0 1024 1024" xmlns="http://www.w3.org/2000/svg" width="200" height="200"><defs><style/></defs><path d="M819.328 635.622a4.352 4.352 0 00.717-.972l.589-.666.844-1.152.461-.691c.154-.435.563-.794.743-1.203a3.328 3.328 0 01.435-.615l.64-1.254c.102-.256.281-.461.435-.666l.589-1.152a1.485 1.485 0 01.41-.793 4.275 4.275 0 00.435-1.127l.46-.896.333-.998.359-1.152.332-.845.461-1.126.23-.845.333-1.28c.128-.205.128-.435.128-.666l.308-1.433.128-.717a6.963 6.963 0 00.23-1.434v-.921c.18-.384.18-.845.18-1.255l.102-1.126.128-1.152.128-2.125c0-.691 0-1.485-.128-2.176l-.128-1.126c0-.23 0-.692-.103-1.024l-.128-1.306-.051-.87-.23-1.408-.128-.794-.308-1.382c-.128-.23-.128-.461-.128-.666l-.332-1.331-.23-.717a4.506 4.506 0 00-.462-1.203l-.332-.922-.359-1.126-.333-.922-.46-1.024-.436-1.152c-.128-.077-.23-.563-.46-.665l-.59-1.152a1.74 1.74 0 00-.383-.666l-.64-1.254-.435-.59c-.23-.486-.59-.844-.743-1.228l-.46-.691-.845-1.152-.59-.717-.716-.922-.794-.896-.716-.793c-.538-.589-.896-1.127-1.46-1.613l-1.715-1.536-.665-.614-.922-.794a7.987 7.987 0 00-.947-.742l-.64-.564-1.203-.921-.692-.41c-.435-.153-.768-.537-1.177-.717a2.278 2.278 0 01-.615-.46l-1.254-.692a1.74 1.74 0 01-.691-.46l-1.127-.564a1.536 1.536 0 01-.819-.332c-.333-.23-.742-.333-1.126-.436l-.922-.486-.973-.333c-.307-.102-.793-.333-1.126-.384l-.845-.358-1.152-.384-.845-.23-1.254-.359-.794-.23-1.382-.308-.768-.128a6.963 6.963 0 00-1.434-.23l-.844-.051c-.461-.128-.922-.128-1.332-.128l-1.126-.103-.922-.128-2.278-.102H241.485a44.723 44.723 0 100 89.37H676.89l-28.365 28.441a44.698 44.698 0 00-3.43 63.079 44.723 44.723 0 0066.534-.026l104.627-104.525 1.485-1.715.665-.666.922-1.024zM194.611 419.84c0 .282 0 .742.128 1.126l.103 1.255.128.921.23 1.357.102.794.333 1.357.128.69.333 1.332c.128.205.128.538.18.717a3.02 3.02 0 00.46 1.203l.333.896.384 1.152.358.896.461 1.024.384 1.152c.128.102.23.563.46.691l.564 1.127a2.048 2.048 0 00.46.69l.615 1.23c.103.23.256.41.41.588l.793 1.255.461.691.845 1.126.589.743.717.896.819.921.563.794 1.587 1.587 1.639 1.536.742.691.87.743a3.251 3.251 0 001.024.717l.615.588 1.177.896.692.41c.46.154.742.563 1.152.742a2.918 2.918 0 01.69.461l1.127.666c.282.128.512.23.743.46l1.177.564c.23 0 .589.128.743.358a5.3 5.3 0 001.152.435l.896.461 1.024.333c.358.128.793.358 1.126.41l.82.332 1.254.41c.204.102.563.102.716.23l1.332.333.716.23 1.434.333.742.128a5.76 5.76 0 001.485.205l.794.077a4.787 4.787 0 001.357.102l1.126.128.922.103 2.278.102h543.13a44.672 44.672 0 000-89.344h-435.2l28.262-28.467a44.646 44.646 0 10-63.104-62.976l-104.55 104.397-1.536 1.715-.615.666-.793.921a7.475 7.475 0 00-.82.973l-.537.666-.82 1.152-.435.69-.819 1.255c-.102.154-.205.384-.46.563l-.564 1.255a2.304 2.304 0 01-.435.665c-.23.41-.46.692-.589 1.152-.102.205-.205.564-.435.794-.256.333-.282.742-.41 1.126l-.46.922-.333.973-.41 1.126-.333.845-.46 1.203c-.103.23-.103.589-.154.794l-.358 1.254c-.103.23-.103.461-.103.691l-.358 1.408-.103.743a6.963 6.963 0 00-.23 1.433l-.102.896c-.128.41-.128.87-.128 1.255l-.103 1.152-.128 1.126-.102 2.15c0 .692 0 1.485.102 2.177-.102.563 0 .844 0 1.126v.18-.052zM0 512C0 229.222 229.222 0 512 0s512 229.222 512 512-229.222 512-512 512S0 794.778 0 512z"/></svg>