<svg class="icon" viewBox="0 0 1024 1024" xmlns="http://www.w3.org/2000/svg" width="200" height="200"><defs><style/></defs><path d="M56.889 0H967.11Q1024 0 1024 56.889V967.11q0 56.889-56.889 56.889H56.89Q0 1024 0 967.111V56.89Q0 0 56.889 0z"/><path d="M670.009 761.685H353.99a69.66 69.66 0 01-69.547-69.546V325.547A69.66 69.66 0 01353.963 256h255.004a44.105 44.105 0 0131.232 12.658l93.668 93.667a18.947 18.947 0 015.689 13.767V692.14a69.66 69.66 0 01-69.547 69.546zM353.99 293.916c-17.465 0-31.63 14.166-31.63 31.63V692.14c0 17.465 14.165 31.601 31.602 31.601h316.046c17.465 0 31.63-14.136 31.63-31.573V383.915l-88.519-88.491a6.315 6.315 0 00-4.153-1.536H353.963z"/><path d="M365.454 512c0-32.768 19.911-52.452 45.511-52.452a38.684 38.684 0 0128.559 12.744l-8.648 10.126a26.738 26.738 0 00-19.683-8.989c-17.294 0-29.355 14.45-29.355 38.116s11.378 38.457 28.9 38.457a29.21 29.21 0 0022.755-10.695l8.42 10.012a39.678 39.678 0 01-31.289 14.45c-25.714.341-45.17-18.546-45.17-51.769zm93.753-50.176h15.815v40.96h42.667v-40.96h15.815V562.29h-15.815v-45.511h-42.667v45.51h-15.815V461.825zm101.035 0h18.204l18.887 50.745c2.276 6.713 4.324 13.54 6.713 20.366h.683c2.275-6.827 4.21-13.653 6.599-20.366l18.204-50.745h18.319V562.29h-15.474v-49.721c0-8.989 1.251-21.96 2.048-31.061l-8.078 22.755-17.636 48.356h-9.785l-17.635-47.9-7.965-22.756c.683 9.102 1.934 22.073 1.934 31.061v49.72h-15.018v-100.92z"/></svg>