<svg class="icon" viewBox="0 0 1024 1024" xmlns="http://www.w3.org/2000/svg" width="200" height="200"><defs><style/></defs><path d="M66.074 367.974C66.074 201.6 224.64 64 429.414 64c165.172 0 330.317 137.6 330.317 303.974 0 166.426-128.819 304-330.317 304-29.696 0-92.492-3.148-118.912-9.574L198.221 736V620.774c-79.309-63.974-132.147-147.2-132.147-252.8zm251.033 358.4c26.445 3.2 82.586 9.6 112.307 9.6 237.824 0 396.39-169.574 396.39-371.174C825.805 163.2 627.61 0 429.415 0 191.59 0 0 163.226 0 364.8c0 115.2 46.26 214.374 132.147 288v182.374L317.107 726.4zm571.443-435.2c0 9.626 3.328 19.226 3.328 28.826 0 19.2-3.328 41.6-6.604 60.8 42.905 51.2 72.678 112 72.678 179.2 0 105.574-66.074 201.626-165.171 256v111.974L680.448 854.4c-26.394 6.4-56.14 9.6-85.862 9.6-85.863 0-132.122-25.6-191.59-67.2-16.538 0-36.327 3.174-56.167 3.174-13.184 0-26.42 0-39.603-3.174 79.257 73.574 158.54 121.6 287.36 121.6 26.419 0 52.864-3.2 79.283-6.426L858.829 1024V841.574C957.952 774.4 1024 672 1024 553.574c0-102.4-52.838-195.174-135.45-262.374zM611.072 416c26.42 0 49.562-22.426 49.562-48.026 0-25.6-23.143-47.974-49.562-47.974s-49.536 22.4-49.536 47.974c0 25.626 23.091 48 49.536 48V416zm-198.195 0c26.419 0 49.561-22.426 49.561-48.026 0-25.6-23.116-47.974-49.561-47.974-26.42 0-49.536 22.4-49.536 47.974 0 25.626 23.117 48 49.536 48V416zm-198.195 0c26.444 0 49.561-22.426 49.561-48.026 0-25.6-23.117-47.974-49.561-47.974-26.42 0-49.536 22.4-49.536 47.974 0 25.626 23.116 48 49.536 48V416z"/></svg>