<svg class="icon" viewBox="0 0 1024 1024" xmlns="http://www.w3.org/2000/svg" width="200" height="200"><defs><style/></defs><path d="M56.889 0H967.11Q1024 0 1024 56.889V967.11q0 56.889-56.889 56.889H56.89Q0 1024 0 967.111V56.89Q0 0 56.889 0z"/><path d="M705.11 464.896H370.488a20.366 20.366 0 100 40.704h326.258v151.524H325.319V353.65h142.677l26.17 40.42a20.338 20.338 0 0017.92 10.694h144.952v31.488a20.366 20.366 0 1040.704 0v-41.33a33.792 33.792 0 00-33.65-30.69h-27.079v-.086H523.236l-26.738-41.387-.285-.427a20.395 20.395 0 00-17.152-9.386H345.657v.028h-27.022a33.849 33.849 0 00-33.85 33.85v.227h-.056v319.601a33.764 33.764 0 0030.066 31.09H705.62a33.764 33.764 0 0031.915-29.24V495.473a33.963 33.963 0 00-32.427-30.578z"/></svg>