<svg class="icon" viewBox="0 0 1024 1024" xmlns="http://www.w3.org/2000/svg" width="200" height="200"><defs><style/></defs><path d="M967.111 0A56.889 56.889 0 011024 56.889V967.11A56.889 56.889 0 01967.111 1024H56.89A56.889 56.889 0 010 967.111V56.89A56.889 56.889 0 0156.889 0H967.11zM725.447 256H304.583l-2.73.17a19.996 19.996 0 00-17.409 19.741v500.622l.171 2.703a19.797 19.797 0 0019.968 17.18h414.834l2.73-.17a19.996 19.996 0 0017.409-19.713V270.45l-.228-2.589A14.308 14.308 0 00725.448 256zm-145.18 328.96v23.495h-204.8V584.96h204.8zm68.266-70.485v23.495H375.467v-23.495h273.066zm0-70.486v23.495H375.467V443.99h273.066zm0-94.009v23.496H375.467V349.98h273.066z"/></svg>