<svg class="icon" viewBox="0 0 1024 1024" xmlns="http://www.w3.org/2000/svg" width="200" height="200"><defs><style/></defs><path d="M973.683 176.552c28.248 0 51.2 22.951 51.2 51.2v568.496c0 28.249-22.952 51.2-51.2 51.2H334.566c-15.89-5.296-60.028-42.372-326.621-312.496-10.593-10.593-10.593-24.718 0-35.31 95.338-98.87 162.427-167.725 210.096-215.394l8.828-8.827c84.745-84.745 102.4-95.338 111.228-97.104l635.586-1.765zm0 51.2H348.69c-21.187 17.655-109.462 105.93-204.8 203.034l-10.593 12.359c-22.952 22.952-45.904 47.669-67.09 70.62 3.53 3.532 7.062 7.063 10.593 12.36l17.655 17.654c3.531 3.531 7.062 7.062 10.593 12.359l10.593 12.359c3.531 3.53 7.062 7.062 10.593 12.358l10.594 12.359c33.544 35.31 67.09 67.09 95.338 97.103l14.124 14.124c47.669 47.67 86.51 84.745 100.634 95.338h626.759V227.752zM726.51 370.759c10.593-10.593 24.718-10.593 35.31 0 10.594 10.593 10.594 24.717 0 35.31L655.89 513.766l105.93 107.696c10.594 10.593 10.594 24.717 0 35.31-5.296 5.297-12.358 7.062-17.654 7.062-5.297 0-12.36-1.765-17.656-7.062L620.58 549.076 514.647 656.772c-5.296 5.297-12.358 7.062-17.655 7.062s-12.359-1.765-17.655-7.062c-7.062-10.593-7.062-24.717 0-35.31l105.931-107.696-105.931-107.697c-10.593-10.593-10.593-24.717 0-35.31 10.593-10.593 24.717-10.593 35.31 0L620.58 478.455 726.51 370.76z"/></svg>