<svg class="icon" viewBox="0 0 1024 1024" xmlns="http://www.w3.org/2000/svg" width="200" height="200"><defs><style/></defs><path d="M56.889 0H967.11Q1024 0 1024 56.889V967.11q0 56.889-56.889 56.889H56.89Q0 1024 0 967.111V56.89Q0 0 56.889 0z"/><path d="M708.267 791.893H327.452c-16.44 0-29.81-13.369-29.81-29.781V258.674c0-16.413 13.37-29.782 29.81-29.782h232.904v43.321H341.02v476.36H694.7V395.434h43.32v366.649c0 16.44-13.368 29.81-29.78 29.81z"/><path d="M589.369 366.194h148.935v43.32H589.397z"/><path d="M588.715 228.38h43.32v180.11h-43.32z"/><path d="M598.386 254.35l34.503-26.169 105.045 138.61-34.531 26.169zM364.942 507.82h61.44v16.64h-41.415v23.153h35.186v16.783h-35.186v26.823h42.894V608h-62.919V507.819zM493 556.288l-26.396-48.47h22.186l10.041 20.566c2.276 4.75 4.466 9.614 7.424 15.844h.683c2.446-6.23 4.466-11.094 6.627-15.844l9.5-20.565h21.107l-26.397 49.408L545.934 608h-22.186l-11.264-22.187c-2.56-5.177-4.864-10.439-7.851-16.526h-.54c-2.56 6.087-4.865 11.378-7.31 16.498l-10.696 22.187H464.84L493 556.288zm94.237-48.47h61.44v16.64h-41.387v23.154h35.214v16.783H607.29v26.823h42.951V608h-62.976V507.819z"/></svg>