<svg class="icon" viewBox="0 0 1024 1024" xmlns="http://www.w3.org/2000/svg" width="200" height="200"><defs><style/></defs><path d="M971.264 669.696h-163.84v-163.84c0-5.632-4.608-10.24-10.24-10.24h-40.96c-5.632 0-10.24 4.608-10.24 10.24v163.84h-163.84c-5.632 0-10.24 4.608-10.24 10.24v40.96c0 5.632 4.608 10.24 10.24 10.24h163.84v163.84c0 5.632 4.608 10.24 10.24 10.24h40.96c5.632 0 10.24-4.608 10.24-10.24v-163.84h163.84c5.632 0 10.24-4.608 10.24-10.24v-40.96c0-5.632-4.608-10.24-10.24-10.24zM331.776 164.352c59.392 0 115.712 23.04 158.72 64.512L512 249.856l21.504-20.992c43.008-41.472 99.328-64.512 158.72-64.512 125.44 0 227.84 102.4 227.84 227.84 0 18.432-3.584 37.376-10.24 57.344 0 0-3.072 9.216-3.072 14.336 0 16.896 13.824 30.72 30.72 30.72 14.848 0 25.6-14.848 30.208-25.088 4.096-9.216 14.336-51.712 14.336-77.312 0-159.744-129.536-289.28-289.28-289.28-66.048 0-129.024 22.016-180.224 62.976-51.2-40.96-114.176-62.976-180.224-62.976-159.744 0-289.28 129.536-289.28 289.28 0 203.776 333.312 440.32 434.688 507.392.512.512 1.536 1.024 1.536 1.024s10.24 4.608 15.872 4.608c16.896 0 30.72-13.824 30.72-30.72 0-10.752-5.632-20.48-14.336-25.6C384 766.976 103.424 553.984 103.424 392.192c.512-125.44 102.912-227.84 228.352-227.84z"/></svg>