<svg class="icon" viewBox="0 0 1024 1024" xmlns="http://www.w3.org/2000/svg" width="200" height="200"><defs><style/></defs><path d="M967.111 0A56.889 56.889 0 011024 56.889V967.11A56.889 56.889 0 01967.111 1024H56.89A56.889 56.889 0 010 967.111V56.89A56.889 56.889 0 0156.889 0H967.11zM793.6 256H230.4c-14.137 0-25.6 11.378-25.6 25.4v461.2c0 13.738 11.463 25.4 25.6 25.4h563.2l2.958-.17A25.458 25.458 0 00819.2 742.6V281.4a25.685 25.685 0 00-25.6-25.4zm0 25.6v404.622L670.492 547.214l-1.905-1.877a15.417 15.417 0 00-21.846 1.593l-43.605 49.18 42.951 89.486-61.781-68.266-12.317 13.938-145.436-160.91-1.906-1.85a15.758 15.758 0 00-22.243 1.935L230.4 662.016V281.6h563.2z"/></svg>