<svg class="icon" viewBox="0 0 1024 1024" xmlns="http://www.w3.org/2000/svg" width="200" height="200"><defs><style/></defs><path d="M1023.988 510.458a508.257 508.257 0 01-159.486 370.223l1.613 1.434c10.496 9.037 29.49 19.2 59.084 32.204 7.629 3.354 34.304 14.746 39.219 16.896 15.078 6.605 25.216 11.494 33.203 16.307 17.408 10.47 27.084 20.378 24.78 39.526-2.483 20.89-16.537 28.441-39.167 33.229-17.587 3.737-97.791 4.351-238.948 3.2-32.332-.257-66.457-.615-103.832-1.025-12.39-.153-121.292-1.535-128.46-1.535C229.22 1020.917 0 792.362 0 510.458 0 228.528 229.22 0 511.994 0s511.994 228.529 511.994 510.458zM619.155 673.093c-90.086 77.823-62.796-58.7-58.675-77.823 4.07-19.097 62.796-136.523 19.789-156.312-43.008-19.814-175.46 77.823-175.46 77.823s-21.837 15.693-19.764 19.789c14.31 25.267 77.798-19.789 77.798-19.789s21.836-17.766 19.788 0a1499.196 1499.196 0 00-38.886 234.135c9.524 51.891 91.443 30.054 155.647-38.911 64.178-68.94 19.763-38.912 19.763-38.912zM566.88 379.465a68.249 68.249 0 107.424-136.293 68.249 68.249 0 00-7.424 136.293z"/></svg>