<svg class="icon" viewBox="0 0 1024 1024" xmlns="http://www.w3.org/2000/svg" width="200" height="200"><defs><style/></defs><path d="M56.889 0H967.11Q1024 0 1024 56.889V967.11q0 56.889-56.889 56.889H56.89Q0 1024 0 967.111V56.89Q0 0 56.889 0z"/><path d="M388.551 199.111a94.578 94.578 0 00-94.578 94.663v165.547h-70.969a23.694 23.694 0 00-23.637 23.666v141.937c0 13 10.61 23.61 23.609 23.61h71.026v70.94a94.578 94.578 0 0094.578 94.663h283.875a94.663 94.663 0 0094.635-94.663v-331.15c0-25.088-23.41-49.21-64.57-89.657l-17.492-17.494-17.494-17.493c-40.476-41.16-64.597-64.569-89.685-64.569H388.55zm0 47.275h172.487c17.038 4.266 16.81 25.315 16.81 46.137v72.163c0 13 10.64 23.638 23.638 23.638h70.912c23.666 0 47.389 0 47.389 23.637v307.484c0 26.055-21.334 47.389-47.389 47.389H388.523a47.502 47.502 0 01-47.275-47.36v-70.94h236.6a23.694 23.694 0 0023.638-23.638V482.958a23.694 23.694 0 00-23.609-23.637H341.248V293.746a47.502 47.502 0 0147.303-47.389zm-91.506 257.422h38.628v7.51l-12.686 2.9v84.765l12.686 2.845v7.509h-38.6v-7.481l12.659-2.901V514.19l-12.658-2.844v-7.51zm58.823 0h15.56l51.313 87.097h.57a520.818 520.818 0 01-1.139-29.412v-57.657h12.687v105.53h-15.56l-51.882-87.07h-.569c.74 13.825 1.138 23.809 1.138 29.981v57.06h-12.118V503.808zm99.158 0h38.656v7.51l-12.686 2.9v84.765l12.686 2.845v7.509h-38.656v-7.481l12.686-2.901V514.19l-12.686-2.844v-7.51z"/></svg>