<svg class="icon" viewBox="0 0 1024 1024" xmlns="http://www.w3.org/2000/svg" width="200" height="200"><defs><style/></defs><path d="M184.889 0H633.03L952.89 320v576a128 128 0 01-128 128h-640a128 128 0 01-128-128V128a128 128 0 01128-128z"/><path d="M276.366 204.174c7.054 0 10.667 3.641 10.667 10.752 0 6.03-2.589 9.558-7.709 10.382l-1.479.143-1.479.028H262.77c-6.855 0-10.638 3.243-11.577 10.041l-.17 1.764-.058 1.848v44.232c0 14.79-6.826 24.718-20.423 28.444 11.89 4.92 18.603 13.113 20.11 24.548l.228 2.503.085 2.56v44.487c0 7.68 2.93 12.06 8.704 13.141l1.508.2 1.593.056h13.596c7.054 0 10.667 3.584 10.667 10.553 0 5.831-2.56 9.387-7.595 10.44l-1.422.227-1.65.113h-18.204c-10.695 0-19.001-3.498-24.69-10.382a35.783 35.783 0 01-7.424-19.228l-.228-2.987-.085-3.072v-42.155c0-6.542-1.365-11.235-3.982-13.852-3.072-3.527-8.676-5.575-16.669-6.03-5.347-.854-8.02-4.438-8.02-10.525s2.673-9.67 8.049-10.553c7.85-.682 13.54-2.673 16.64-5.774a17.892 17.892 0 003.698-9.642l.227-2.134.057-2.304v-41.955c0-10.695 2.56-19.143 7.737-25.515 4.665-5.831 11.15-9.16 19.513-10.098l2.56-.199 2.617-.057h18.204zm179.968 0c10.695 0 19.001 3.47 24.69 10.354 4.124 5.092 6.6 11.492 7.424 19.257l.228 2.987.085 3.043v42.183c0 6.542 1.365 11.207 3.982 13.853 3.072 3.527 8.676 5.546 16.669 6.001 5.319.854 8.02 4.438 8.02 10.525s-2.701 9.671-8.049 10.581c-7.85.654-13.54 2.674-16.64 5.746a17.892 17.892 0 00-3.726 9.671l-.2 2.105-.056 2.332v41.928c0 10.723-2.56 19.171-7.737 25.514-4.665 5.831-11.15 9.16-19.513 10.098l-2.56.228-2.617.056H438.13c-7.054 0-10.695-3.669-10.695-10.78 0-6.03 2.617-9.529 7.737-10.382l1.45-.142h15.104c6.855 0 10.638-3.272 11.549-10.041l.199-1.792.057-1.82v-44.26c0-14.791 6.826-24.69 20.423-28.445-11.89-4.892-18.603-13.084-20.11-24.547l-.256-2.503-.057-2.56v-44.43c0-7.68-2.93-12.09-8.704-13.142l-1.536-.228-1.565-.056H438.13c-7.054 0-10.695-3.584-10.695-10.525 0-5.86 2.56-9.387 7.623-10.467l1.422-.228 1.65-.085h18.204zm-72.903 140.8c6.457 0 11.918 2.646 16.213 7.822 4.011 5.234 6.088 12.09 6.088 20.196 0 12.174-3.613 22.926-10.696 32.427-5.632 7.85-11.093 10.837-16.213 8.96-4.636-1.65-5.12-8.363-2.133-11.463l1.365-1.423.996-1.28c.284-.37.825-1.194 2.275-3.385 3.897-5.205 5.632-10.154 6.457-15.132a17.92 17.92 0 01-5.973.939 17.835 17.835 0 01-13.085-5.49 18.12 18.12 0 01-5.262-13.369c0-5.689 1.906-10.24 5.689-13.568 3.556-3.527 8.277-5.234 14.28-5.234zm-65.365 1.252A15.758 15.758 0 00307 350.15l-1.166 1.195a16.242 16.242 0 00-5.12 12.458c0 4.978 1.621 8.932 5.12 12.46 3.157 3.128 7.395 4.863 12.23 4.863a18.29 18.29 0 0012.431-4.835c3.442-3.698 5.12-7.709 5.12-12.516a17.067 17.067 0 00-5.12-12.43 16.583 16.583 0 00-12.43-5.12zm0-78.08c5.319 0 9.586 1.763 13.369 5.518a18.347 18.347 0 015.461 13.34c0 5.12-1.82 9.444-5.518 13.37a19.541 19.541 0 01-13.312 5.233 18.204 18.204 0 01-13.113-5.234 17.863 17.863 0 01-5.518-13.369c0-4.75 1.393-8.76 4.181-12.003l1.28-1.337a16.668 16.668 0 0113.17-5.518z" fill-opacity=".9"/><path d="M632.889 0l320 320h-192a128 128 0 01-128-128V0z"/><path d="M239.844 732.217c17.834 0 32.455-5.518 43.86-16.555 11.436-11.036 17.153-25.884 17.153-44.43V547.556H258.56v123.648c0 8.903-1.764 15.872-5.234 20.935-3.527 5.034-8.021 7.566-13.51 7.566-7.254 0-13.114-2.105-17.636-6.258-4.495-4.181-6.742-10.723-6.742-19.627h-41.244l-.398.74c-.399 18.773 5.376 33.052 17.322 42.894 11.947 9.814 28.189 14.734 48.697 14.734zm157.383 0c20.65 0 37.262-4.523 49.749-13.568 12.487-9.017 18.745-21.561 18.745-37.547 0-15.644-5.405-28.018-16.27-36.978-10.81-9.016-26.767-16.668-47.872-22.897-12.402-4.836-20.879-8.875-25.43-12.06a14.962 14.962 0 01-6.826-12.8c0-5.519 2.218-10.127 6.656-13.882 4.409-3.754 10.439-5.632 18.119-5.632 9.386 0 16.47 1.935 21.106 5.803 4.693 3.868 6.997 10.098 6.997 18.688h41.017l.256-.768c.398-17.636-5.69-31.346-18.375-41.045-12.687-9.7-29.383-14.564-50.148-14.564-19.627 0-35.84 4.722-48.64 14.137-12.715 9.387-19.086 21.76-19.086 36.978 0 15.616 5.461 27.534 16.412 35.84 10.98 8.277 27.762 16.1 50.347 23.438 11.15 3.897 18.859 7.595 23.097 11.036 4.267 3.47 6.4 8.448 6.4 14.934 0 5.689-2.19 10.24-6.514 13.767-4.352 3.499-10.923 5.262-19.74 5.262-10.752 0-18.745-2.247-23.95-6.713-5.206-4.437-7.794-11.946-7.794-22.556h-41.131l-.284.768c-.399 20.821 6.542 36.096 20.82 45.795 14.308 9.728 31.745 14.564 52.339 14.564zm165.745 0c22.927 0 41.472-7.253 55.695-21.817 14.222-14.507 21.305-32.996 21.305-55.438v-32.74c0-22.329-7.168-40.818-21.504-55.381-14.336-14.592-32.94-21.902-55.752-21.902-23.011 0-41.642 7.31-55.921 21.902-14.308 14.563-21.447 33.024-21.447 55.381v32.74c0 22.414 7.168 40.903 21.504 55.438 14.336 14.535 32.995 21.817 56.12 21.817zm0-32.484c-11.434 0-20.195-4.181-26.34-12.515-6.115-8.306-9.158-19.058-9.158-32.256v-32.996c0-13.084 3.015-23.75 9.045-32.057 6.059-8.277 14.791-12.43 26.197-12.43 11.15 0 19.798 4.153 25.942 12.516 6.115 8.305 9.187 18.972 9.187 31.971v32.996c0 13.198-3.043 23.922-9.102 32.256-6.115 8.334-14.706 12.515-25.77 12.515zM707.954 729.6V615.339l.74-.256L775.338 729.6h42.097V547.584H775.34v114.148l-.74.256-66.645-114.404h-42.24V729.6h42.24z" fill-opacity=".9"/></svg>