<svg class="icon" viewBox="0 0 1024 1024" xmlns="http://www.w3.org/2000/svg" width="200" height="200"><defs><style/></defs><path d="M56.889 0H967.11Q1024 0 1024 56.889V967.11q0 56.889-56.889 56.889H56.89Q0 1024 0 967.111V56.89Q0 0 56.889 0z"/><path d="M378.68 455.111l-8.902 106.553h17.92l4.95-59.449 23.836 59.449h12.088l23.865-59.449 4.95 59.449h17.92l-8.96-106.553h-14.223l-29.61 73.785-29.582-73.785h-14.223zm115.144 0v106.553h17.806c29.44 0 53.476-23.95 53.476-53.276 0-29.298-24.036-53.277-53.476-53.277h-17.806zm89.116 0v106.667h40.05a31.317 31.317 0 0031.232-31.147c0-11.264-6.457-20.764-15.53-26.254 3.868-5.177 6.627-11.264 6.627-18.205a31.289 31.289 0 00-31.203-31.06H582.94zm-71.31 17.75c19.798 0 35.67 15.815 35.67 35.555 0 19.684-15.872 35.499-35.67 35.499V472.86zm89.117 0h13.369c7.48 0 13.368 5.859 13.368 13.34a13.227 13.227 0 01-13.368 13.312h-13.37V472.86zm0 44.401h22.243a13.312 13.312 0 0113.398 13.37A13.198 13.198 0 01622.99 544h-22.243v-26.738z"/><path d="M670.009 761.685H353.99a69.66 69.66 0 01-69.547-69.546V325.547A69.66 69.66 0 01353.963 256h255.004a44.105 44.105 0 0131.232 12.658l93.668 93.667a18.947 18.947 0 015.689 13.767V692.14a69.66 69.66 0 01-69.547 69.546zM353.99 293.916c-17.465 0-31.63 14.166-31.63 31.63V692.14c0 17.465 14.165 31.601 31.602 31.601h316.046c17.465 0 31.63-14.136 31.63-31.573V383.915l-88.519-88.491a6.315 6.315 0 00-4.153-1.536H353.963z"/></svg>