<svg class="icon" viewBox="0 0 1024 1024" xmlns="http://www.w3.org/2000/svg" width="200" height="200"><defs><style/></defs><path d="M967.111 0A56.889 56.889 0 011024 56.889V967.11A56.889 56.889 0 01967.111 1024H56.89A56.889 56.889 0 010 967.111V56.89A56.889 56.889 0 0156.889 0H967.11zm-381.27 358.4H207.759a28.302 28.302 0 00-28.558 28.36v250.48c0 15.56 12.8 28.36 28.558 28.36h378.084a28.302 28.302 0 0028.558-28.36V386.76c0-15.56-12.8-28.36-28.558-28.36zM844.8 372.395c0-7.567-5.262-10.525-11.748-6.258L677.348 468.82c-6.571 4.324-11.748 14.166-11.748 22.073v42.212c0 7.794 5.262 17.806 11.748 22.101l155.704 102.628c6.571 4.352 11.748 1.507 11.748-6.258z"/></svg>