<svg class="icon" viewBox="0 0 1024 1024" xmlns="http://www.w3.org/2000/svg" width="200" height="200"><defs><style/></defs><path d="M967.111 0A56.889 56.889 0 011024 56.889V967.11A56.889 56.889 0 01967.111 1024H56.89A56.889 56.889 0 010 967.111V56.89A56.889 56.889 0 0156.889 0H967.11zM433.863 221.27l-3.925.255c-16.214 1.82-31.318 13.37-41.87 28.843l-1.11 2.162-.74 2.446c-8.533 32.427 16.356 113.436 58.767 189.156l1.138 1.99-3.983 14.962a1511.538 1511.538 0 01-46.392 141.74l-.882 2.275-6.059 1.99a930.522 930.522 0 00-43.89 16.271l-13.653 5.66a727.865 727.865 0 00-13.141 5.69l-12.516 5.717a802.404 802.404 0 00-11.947 5.745l-11.264 5.718a532.48 532.48 0 00-5.376 2.844l-10.24 5.632c-19.683 11.179-34.872 21.817-44.26 30.89-17.834 17.267-29.98 52.253-26.14 79.076 5.092 35.158 34.418 51.456 83.314 39.823 26.254-6.258 54.244-37.888 82.46-89.031l5.832-10.81a471.7 471.7 0 005.83-11.406l5.86-11.946 5.832-12.43 5.83-12.971 5.832-13.454 5.802-13.938 5.803-14.393 13.853-4.352a1088.853 1088.853 0 01132.01-31.204l4.125-.682 2.56 1.99c47.16 35.443 106.752 63.347 140.117 72.819 21.788 6.2 51.883 8.533 75.605 4.38 32.655-5.689 53.191-22.955 53.191-52.565 0-34.532-28.757-52.31-75.89-58.254l-8.76-.94-9.16-.71-4.721-.256-9.728-.313-4.978-.085-10.24.028-5.262.114-10.752.37a602.169 602.169 0 00-5.49.256l-11.207.682-11.52.91a1306.965 1306.965 0 00-98.816 12.203l-4.096-3.3a288.2 288.2 0 01-31.687-30.35 537.884 537.884 0 01-62.265-87.04l.74-2.73 1.82-7.282 3.47-14.28 3.186-13.852 2.901-13.397 2.617-12.914 2.361-12.402 1.053-6.03 1.877-11.605 1.593-11.065.682-5.32 1.138-10.154c2.702-27.99 1.622-48.554-3.783-59.335-15.19-30.208-34.332-43.975-55.381-41.586zm-47.929 406.186l-4.096 9.956-5.689 13.226-5.689 12.743-5.688 12.231-5.69 11.72c-3.81 7.651-7.566 14.933-11.32 21.816l-5.632 10.098c-24.235 42.382-47.389 68.494-66.674 73.102-39.111 9.33-57.543-.91-60.956-24.632-3.016-20.964 7.11-50.091 20.764-63.318 7.083-6.883 18.204-14.933 32.654-23.552l9.017-5.234c10.98-6.2 23.495-12.6 37.262-19.029l12.118-5.518c4.124-1.82 8.362-3.67 12.686-5.49l13.227-5.433a837.289 837.289 0 0127.932-10.638l5.774-2.048zm321.906-59.42a338.489 338.489 0 0137.604 1.706l8.305.996c36.295 5.205 58.17 18.034 58.17 39.424 0 19.143-13.142 30.236-38.031 34.56-20.821 3.64-48.156 1.536-67.413-3.954a89.828 89.828 0 01-2.077-.597l-4.92-1.65-5.917-2.133-6.741-2.56-7.424-3.016-7.965-3.356-8.249-3.64-8.533-3.926-10.44-5.063-10.353-5.291a468.366 468.366 0 01-49.067-29.61l-.569-.427 12.374-1.792 16.583-2.19a1322.581 1322.581 0 0156.69-5.803l11.292-.768c1.849-.114 3.698-.228 5.518-.285l10.752-.426zm-248.576-99.727l2.56 4.096 6.969 10.81a527.417 527.417 0 0045.454 59.448l6.144 6.713 4.267 4.38a322.084 322.084 0 008.931 8.62l6.343 5.688-.768.17.2.143-3.641.683-15.645 3.043c-36.153 7.253-70.485 15.929-102.969 25.885l2.219-5.86a1542.827 1542.827 0 0035.413-108.26l4.182-15.075.17.227.171-.71zm-25.202-228.75c11.662-.227 23.524 9.102 34.902 31.773l.682 1.536.598 1.735c1.706 5.575 2.389 14.023 2.104 24.917l-.34 7.595-.627 8.305-.881 8.932c-.512 4.636-1.138 9.5-1.85 14.592l-1.592 10.44-1.85 11.007-2.104 11.52-2.39 12.004-2.616 12.458-2.873 12.914-2.56 10.638-3.982-7.793c-32.484-64.285-50.802-128.37-45-151.666l.228-.854 1.48-2.02c6.911-8.988 15.7-15.558 24.092-17.464l2.503-.455z"/></svg>