<svg class="icon" viewBox="0 0 1024 1024" xmlns="http://www.w3.org/2000/svg" width="200" height="200"><defs><style/></defs><path d="M791.991 648.96c-70.272-1.178-133.146 44.109-155.213 111.77-12.109 37.222-55.603 52.608-88.755 32.716a848.358 848.358 0 01-298.445-304.87 25.549 25.549 0 018.346-34.765 24.755 24.755 0 0112.98-3.712c85.58 0 162.175-53.81 187.673-133.196C502.3 181.043 405.994 48.768 271.543 48.768a193.434 193.434 0 00-98.509 26.752 201.267 201.267 0 00-99.072 160.333c-.256 3.251-.307 6.323-.307 13.594 0 7.116.333 13.824 1.101 22.144C86.609 663.219 402.564 975.258 789.38 975.258l6.579-.052c2.125-.05 3.942-.128 5.58-.256a161.946 161.946 0 00135.502-97.792 166.912 166.912 0 0013.235-68.377c-1.715-85.658-73.856-158.49-158.285-159.847m206.336 158.848a216.166 216.166 0 01-17.1 88.653c-30.977 72.115-98.689 120.986-176 127.155a150.272 150.272 0 01-8.346.359c-2.125.051-3.815.051-7.501.051-412.826 0-750.054-333.005-762.624-749.26a264.038 264.038 0 01-1.178-25.293c0-8.5.077-12.288.41-17.05a250.189 250.189 0 01122.88-199.04A241.178 241.178 0 01271.594 0C438.506 0 558.237 164.455 504.35 332.032c-28.083 87.27-104.396 149.453-193.945 163.738a799.232 799.232 0 00262.144 255.744c7.168 4.3 16.307 1.024 18.662-6.093 28.621-87.91 110.285-146.714 201.549-145.203 110.336 1.715 203.366 95.667 205.594 207.564"/></svg>