<svg class="icon" viewBox="0 0 1024 1024" xmlns="http://www.w3.org/2000/svg" width="100" height="100"><defs><style/></defs><path d="M113.778 0h796.444C973.062 0 1024 50.938 1024 113.778v796.444c0 62.84-50.938 113.778-113.778 113.778H113.778C50.938 1024 0 973.062 0 910.222V113.778C0 50.938 50.938 0 113.778 0z"/><path d="M676.864 715.708c89.964 46.228 141.175 112.128 170.45 173.431l3.346 7.191a371.117 371.117 0 014.653 10.684l2.867 7.043 2.685 6.974 2.504 6.884 2.343 6.804c.751 2.252 1.48 4.482 2.174 6.701l2.025 6.6 1.866 6.462 2.537 9.477 1.525 6.144 1.388 5.997 1.263 5.836 1.149 5.678 1.047 5.495 1.365 7.908 1.138 7.464 1.228 9.216.729 6.314H136.533l1.593-10.604 1.195-7.054 1.365-7.51 1.047-5.267 1.74-8.26 1.298-5.723 1.41-5.894 1.537-6.042 2.548-9.352 1.866-6.406 2.014-6.52 1.058-3.31 2.242-6.713 2.389-6.793 2.571-6.906a418.816 418.816 0 017.168-17.602l3.186-7.156 1.673-3.596 3.481-7.236a406.907 406.907 0 017.578-14.586l4.107-7.327c30.925-53.795 79.656-108.635 157.127-148.446 97.656 77.87 232.483 77.87 330.138 0zM511.795 295.822c113.915 0 204.573 91.99 204.573 207.6 0 113.208-92.98 207.575-204.573 207.575-113.914 0-204.606-91.989-204.606-207.576.011-115.598 90.692-207.599 204.606-207.599z"/></svg>