<svg class="icon" viewBox="0 0 1024 1024" xmlns="http://www.w3.org/2000/svg" width="200" height="200"><defs><style/></defs><path d="M797.967 671.718c-162.995 147.917-411.468 147.917-574.515 0A384 384 0 00.015 1024h1024a383.744 383.744 0 00-226.38-353.587l.332 1.28zm-620.544-149.81V260.223h-10.496C257.551 70.528 484.572-9.651 673.987 81.101a380.467 380.467 0 01178.867 179.123h-10.778v261.683a130.74 130.74 0 00132.915-128.512v-2.304a130.893 130.893 0 00-66.944-114.841C825.871 56.346 581.135-55.22 361.487 27.085A425.011 425.011 0 00112.655 276.25a130.97 130.97 0 00-48.307 178.61 130.611 130.611 0 00113.664 65.716l-.64 1.331zm332.8-392.526C352.707 127.95 223.76 254.566 222.173 412.34c1.612 157.696 130.56 284.211 288.05 282.599 157.517 1.638 286.464-124.903 288.128-282.573v-.026C796.918 254.618 668.1 127.95 510.607 129.382h-.358z"/></svg>