<svg class="icon" viewBox="0 0 1024 1024" xmlns="http://www.w3.org/2000/svg" width="200" height="200"><defs><style/></defs><path d="M512 1024C230.4 1024 0 793.6 0 512S230.4 0 512 0s512 230.4 512 512-230.4 512-512 512zm-43.886-680.229v468.115c0 7.314 3.657 10.971 10.972 10.971h65.828c7.315 0 10.972-3.657 10.972-10.971V343.77c0-7.314-3.657-10.971-10.972-10.971h-65.828c-7.315 0-10.972 7.314-10.972 10.971zm0-131.657v65.829c0 7.314 3.657 10.971 10.972 10.971h65.828c7.315 0 10.972-3.657 10.972-10.971v-65.829c0-7.314-3.657-10.971-10.972-10.971h-65.828c-7.315 0-10.972 3.657-10.972 10.971z"/></svg>