<svg class="icon" viewBox="0 0 1078 1024" xmlns="http://www.w3.org/2000/svg" width="210.547" height="200"><defs><style/></defs><path d="M894.923 723.699C858.57 786 862.235 859.594 898.56 911.09A538.516 538.516 0 01699.177 1024c-26.678-56.643-88.387-96.337-160.256-96.337S405.343 967.357 378.691 1024a538.947 538.947 0 01-201.026-114.338c36.594-51.361 40.555-124.955 4.446-187.365-36.756-63.515-104.394-97.091-168.313-89.788A535.552 535.552 0 010 511.299c0-38.211 3.988-75.48 11.64-111.427 64.674 8.785 133.768-24.522 171.305-88.765 38.104-65.266 32.256-142.982-9.162-194.667A539.217 539.217 0 01374.057 0c23.579 62.356 88.468 107.143 164.837 107.143 76.396 0 141.285-44.787 164.891-107.143a539.298 539.298 0 01201.89 117.895c-41.607 51.55-47.778 129.24-9.917 194.668 37.268 64.377 106.227 97.953 170.927 89.438a537.923 537.923 0 01-3.126 232.636c-63.892-7.545-131.638 25.735-168.663 89.062zm-355.975 3.88a215.579 215.579 0 100-431.158 215.579 215.579 0 000 431.158z"/></svg>