<svg class="icon" viewBox="0 0 1024 1024" xmlns="http://www.w3.org/2000/svg" width="200" height="200"><defs><style/></defs><path d="M455.63 69.77c-131.265 2.796-234.8 109.762-234.8 243.878 0 131.847 105.334 239.506 234.8 243.934 129.523-4.428 234.829-112.087 234.829-243.934 0-134.116-103.535-241.055-234.829-243.878zm0 557.555h-8.745C282.27 630.839 141.622 749.29 110.792 913.13c-3.432 17.38-17.16 27.842-34.318 27.842h-6.92c-20.507-3.487-30.83-24.355-27.398-41.79a419.978 419.978 0 01257.3-313.704c-96.034-52.28-157.778-153.323-157.778-271.858C141.65 139.402 278.866 0 450.372 0c1.771 0 3.515 0 5.258.055L460.89 0C632.45 0 769.666 139.402 769.666 313.648c0 118.508-61.744 219.58-157.779 271.859a419.757 419.757 0 0194.402 52.666 222.43 222.43 0 00-57.012 46.91 347.939 347.939 0 00-184.873-57.758h-8.746zm472.064 42.703c3.432-3.432 3.432-6.836 3.432-10.268v-10.295c0-3.432-3.432-6.863-3.432-10.268a103.922 103.922 0 00-17.13-23.994c-6.864-6.864-13.7-13.7-20.564-17.16-3.432 0-6.863-3.403-10.295-3.403-3.404-3.432-10.24-3.432-13.7-3.432-6.836 0-10.267 3.432-13.7 3.432s-10.294 3.431-13.699 6.863c-3.431 3.404-10.295 6.836-13.727 10.268a47.242 47.242 0 00-13.7 10.295l85.685 82.225 13.7-13.7 10.267-10.295c3.432-3.432 6.863-6.836 6.863-10.268zm-164.476 157.64l106.22-92.519-85.657-82.252-99.383 92.52-37.695 34.262-34.262 30.859-23.995 23.994-13.727 13.672-10.24 10.295c-3.46 3.432-3.46 6.864-6.864 10.268-3.46 3.432-3.46 6.864-6.863 13.727-3.432 6.836-3.432 17.132-6.864 23.995-3.432 10.24-3.432 17.104-6.836 23.967 0 6.864-3.431 13.7-3.431 17.16 0 10.24 0 13.699 3.431 17.103 0 3.431 3.404 3.431 10.24 3.431h3.46c3.404 0 10.267 0 17.131-3.431 6.836-3.404 13.7-3.404 23.995-6.836 6.836-3.432 17.131-3.432 23.995-10.296 6.836-3.431 13.7-3.431 17.13-6.835 6.837-3.432 10.269-3.432 13.7-6.864s6.836-3.432 10.268-6.864l10.295-10.267 23.967-23.995c10.296-10.268 20.564-20.563 34.263-30.83l37.722-34.263zm209.034-188.47c3.404 6.835 3.404 13.699 10.268 17.13 0 10.268 0 20.536-3.432 27.4s-10.267 17.158-17.131 23.994l-17.131 17.132c-3.432 3.431-6.836 3.431-10.268 6.863l-30.858 30.83-99.356 92.52-37.722 34.263c-13.7 13.7-23.967 23.995-34.262 30.859l-23.968 23.967-13.727 13.727c-3.432 3.432-10.267 6.836-13.7 10.267-6.863 6.864-13.699 10.268-20.562 13.728-6.864 3.404-13.7 6.836-23.967 10.24-10.296 3.46-17.16 6.863-27.427 10.295-10.295 3.432-17.159 3.432-27.427 6.864-10.267 0-17.13 3.431-23.967 3.431h-13.727c-27.399 0-41.126-13.727-47.962-20.563-10.267-13.727-13.7-27.399-10.267-47.99 3.404-6.835 3.404-13.699 6.835-23.966 3.432-6.864 3.432-17.16 6.836-23.995 3.432-10.268 3.432-17.132 6.864-23.995 3.432-10.268 3.432-17.131 6.863-20.563 3.432-6.836 6.864-13.7 10.268-17.104 6.864-3.46 10.296-10.295 17.16-17.159l3.403-6.835c10.268-6.864 17.16-13.728 27.4-23.995l34.29-30.859 37.694-34.262 99.355-92.52 3.432-3.432 27.399-23.967 6.891-6.863c3.432-3.432 10.268-6.836 13.7-10.268 3.431-6.864 10.267-10.295 13.7-13.727 6.863-6.836 17.158-10.268 27.398-13.7 6.864-3.431 17.159-3.431 24.022-3.431h3.432c6.836 0 17.104 0 23.967 3.431s10.296 3.432 17.16 6.864c10.24 3.404 23.966 13.7 34.262 23.995 13.7 10.24 20.535 20.535 27.399 34.262a26.181 26.181 0 016.863 17.131z"/></svg>