<svg class="icon" viewBox="0 0 1024 1024" xmlns="http://www.w3.org/2000/svg" width="200" height="200"><defs><style/></defs><path d="M945.203 675.84l-76.047 133.12c-7.59 12.77-22.799 15.36-35.478 10.24l-101.376-58.88c-32.95 30.72-73.488 56.32-119.116 69.09V947.2c0 15.36-10.15 25.6-25.359 25.6H435.793c-15.21 0-25.359-10.24-25.359-25.6V829.44c-45.628-15.36-86.166-38.43-119.115-69.12L189.943 819.2c-12.65 7.65-27.889 2.53-35.479-10.24L78.417 675.84c-7.59-12.83-2.53-28.19 10.15-35.84l101.376-58.88a321.175 321.175 0 01-7.59-69.12c0-23.04 2.53-46.08 7.59-69.15L88.567 384c-12.65-7.71-15.21-23.04-10.15-35.84l76.047-133.12c7.59-12.83 22.8-15.36 35.479-10.24l101.376 58.85c32.949-30.69 73.487-56.29 119.115-69.09V76.8c0-15.36 10.15-25.6 25.36-25.6h152.033c15.21 0 25.36 10.24 25.36 25.6v117.76c45.627 15.36 86.166 38.4 119.115 69.09l101.376-58.85c12.649-7.71 27.888-2.59 35.478 10.24l76.047 133.12c7.59 12.8 2.53 28.13-10.15 35.84l-101.375 58.85c5.06 23.04 7.59 46.11 7.59 69.15 0 23.01-2.53 46.08-7.59 69.12L935.054 640c12.649 7.65 17.769 23.01 10.15 35.84m38.008-66.56l-93.787-53.76c2.53-15.36 2.53-28.16 2.53-43.52s0-28.19-2.53-43.55l93.787-53.76c25.329-15.33 32.948-46.08 17.739-69.09L899.575 168.96c-15.21-25.6-45.628-33.31-68.427-17.95L737.36 204.8c-22.799-17.95-48.158-30.72-73.487-43.55V51.2c0-28.19-22.799-51.2-50.688-51.2H410.434c-27.889 0-50.688 23.01-50.688 51.2v110.05c-25.329 12.8-50.688 25.6-73.487 43.55l-93.786-56.32a48.88 48.88 0 00-68.427 17.92L22.7 343.01c-15.21 25.6-5.06 56.35 17.77 69.15l93.755 53.73c-2.53 15.36-2.53 28.16-2.53 43.52 0 15.39 0 28.19 2.53 43.52L40.41 606.72c-25.33 15.36-32.949 46.08-17.74 69.09l101.377 176.64c15.209 25.6 45.628 33.28 68.427 17.95l93.786-53.79c22.8 17.92 48.158 30.72 73.487 43.52V972.8c0 28.13 22.8 51.2 50.688 51.2h202.752c27.89 0 50.688-23.07 50.688-51.2V862.72c25.33-12.8 50.688-25.6 73.487-43.52l93.787 53.73c25.329 15.39 55.747 5.12 68.427-17.92l101.376-176.61c15.21-23.07 7.59-53.79-17.77-69.15m-471.37 56.35c-83.637 0-152.065-69.15-152.065-153.6 0-84.51 68.428-153.6 152.064-153.6 83.637 0 152.064 69.09 152.064 153.6 0 84.45-68.427 153.6-152.064 153.6m0-358.4c-111.525 0-202.752 92.16-202.752 204.8 0 112.64 91.257 204.8 202.752 204.8 111.526 0 202.752-92.16 202.752-204.8 0-112.64-91.256-204.8-202.752-204.8"/></svg>