<svg class="icon" viewBox="0 0 1024 1024" xmlns="http://www.w3.org/2000/svg" width="200" height="200"><defs><style/></defs><path d="M812.854 516.817V90.316A30.105 30.105 0 00782.75 60.21H120.433a30.105 30.105 0 00-30.105 30.105v782.736a30.105 30.105 0 0030.105 30.106h421.173c-19.93-37.722-29.804-82.067-29.804-133.397 0-72.433 22.368-132.463 67.736-180.722 47.266-51.72 107.265-77.25 180.752-77.25a262.819 262.819 0 0152.534 5.028zm60.21 22.488a187.255 187.255 0 0145.67 37.331c35.795 39.317 53.678 88.269 53.678 147.606 0 49.674-14.691 93.808-42.81 133.788-28.118 37.932-58.765 57.26-92.001 57.26-26.824 0-41.515-15.173-44.074-45.52-21.706 31.01-48.56 46.905-80.502 46.905-26.794 0-48.53-10.356-65.148-29.654-16.618-19.327-24.927-44.164-24.927-73.818 0-51.028 14.06-95.885 43.442-133.125 28.118-37.24 60.692-55.183 99.046-55.183 30.648 0 51.089 17.25 61.325 51.75l9.573-38.624h41.546l-45.37 180.029c-5.117 19.99-7.676 33.778-7.676 42.057 0 11.049 5.72 17.25 17.883 17.25 19.809 0 39.618-13.788 59.427-40.702 22.97-31.73 34.47-68.971 34.47-111.72 0-48.982-15.323-89.684-45.97-122.107-33.236-35.163-77.972-52.414-132.884-52.414-58.766 0-107.326 20.683-145.65 62.77-37.691 41.394-56.236 94.5-56.236 157.962 0 69.664 18.545 123.432 56.869 161.364C648.51 968.396 697.702 987 760.32 987c44.706 0 84.294-8.94 117.53-26.19a190.566 190.566 0 0070.928-64.848h44.707a226.542 226.542 0 01-96.458 95.193c-40.882 21.375-86.281 32.424-136.707 32.424-71.982 0-129.333-20.08-172.564-60.211H90.328a60.21 60.21 0 01-60.21-60.21V60.21A60.21 60.21 0 0190.328 0h722.526a60.21 60.21 0 0160.21 60.21v479.095zM770.497 658.01c-25.74 0-48.47 14.571-67.616 45.158-20.351 30.617-30.527 67.075-30.527 110.065 0 19.659 3.613 34.982 11.38 46.633s19.147 17.461 34.109 17.461 29.925-7.255 44.255-21.826a110.878 110.878 0 0028.75-51.028l13.156-59.73c3.613-18.966 5.991-30.616 5.991-34.982 0-13.125-3.612-24.776-10.175-34.26-7.798-11.65-17.371-17.46-29.323-17.46zM240.854 180.632h451.58a30.105 30.105 0 110 60.21h-451.58a30.105 30.105 0 110-60.21zm0 180.631h451.58a30.105 30.105 0 110 60.21h-451.58a30.105 30.105 0 110-60.21zm0 150.526h240.842a30.105 30.105 0 110 60.21H240.854a30.105 30.105 0 110-60.21zm0 150.527h180.632a30.105 30.105 0 110 60.21H240.854a30.105 30.105 0 110-60.21z"/></svg>