<svg class="icon" viewBox="0 0 1024 1024" xmlns="http://www.w3.org/2000/svg" width="200" height="200"><defs><style/></defs><path d="M421.045 572.627H214.739c-21.083 0-37.888 16.866-37.888 33.701 0 21.023 16.836 33.672 37.888 33.672h206.306c21.082 0 37.918-16.866 37.918-33.672 0-16.865-16.866-33.701-37.918-33.701zM214.739 374.754c-21.083 0-37.888 16.806-37.888 33.671 0 21.053 16.836 33.672 37.888 33.672h362.104c21.053 0 37.888-16.866 37.888-33.672 0-21.082-16.835-33.701-37.888-33.701H214.74zm564.194-147.396c0-21.022-16.836-33.671-37.888-33.671H214.739c-21.083 0-37.888 16.865-37.888 33.671 0 21.082 16.836 33.702 37.888 33.702h526.306c21.082 0 37.888-12.65 37.888-33.702zM307.35 938.948H138.963a66.5 66.5 0 01-67.373-67.373V138.933c0-37.888 29.455-67.373 67.373-67.373h728.395c37.918 0 67.373 29.515 67.373 67.373v185.283c0 21.053 16.866 33.672 33.702 33.672 21.052 0 33.671-16.836 33.671-33.672V138.933C1010.537 63.157 947.381 0 867.358 0H138.963C63.157 0 0 63.157 0 138.933v732.672c0 75.776 63.157 138.963 138.963 138.963H307.35c21.082 0 33.731-16.866 33.731-33.702 0-21.082-12.65-37.888-33.731-37.888zm644.216-362.105c0 4.217-4.216 8.433-8.433 12.65l-12.59 12.619-16.865 16.866-105.261-101.075c4.216-4.216 8.433-8.433 16.866-12.65 4.186-4.216 12.589-8.432 16.836-12.619 4.216-4.216 12.649-8.433 16.835-8.433 4.217 0 8.433-4.216 16.836-4.216 4.217 0 12.65 0 16.866 4.216 4.216 0 8.403 4.217 12.62 4.217 8.432 4.216 16.835 12.65 25.268 21.082 8.433 8.403 16.836 21.022 21.022 29.455 0 4.217 4.217 8.433 4.217 12.65v12.619c0 4.216 0 8.433-4.217 12.62zM749.477 770.53l-46.32 42.104c-16.866 12.65-29.485 25.239-42.105 37.888l-29.485 29.455-12.62 12.65c-4.216 4.216-8.432 4.216-12.649 8.433-4.186 4.216-8.402 4.216-16.835 8.433-4.217 4.186-12.62 4.186-21.023 8.403-8.432 8.432-21.082 8.432-29.515 12.649-12.62 4.216-21.052 4.216-29.455 8.403-8.433 4.216-16.866 4.216-21.052 4.216H484.2c-8.433 0-12.649 0-12.649-4.216-4.186-4.217-4.186-8.433-4.186-21.083 0-4.216 4.216-12.619 4.216-21.022 4.217-8.433 4.217-16.866 8.433-29.485 4.217-8.433 4.217-21.052 8.433-29.485 4.186-8.433 4.186-12.62 8.403-16.836 4.216-4.216 4.216-8.433 8.433-12.62l12.589-12.649 16.866-16.805 29.485-29.515 42.104-37.858 46.291-42.135 122.127-113.664 105.262 101.045-130.53 113.694zm256.844-231.605c0-8.403-4.217-16.836-8.433-21.022-8.433-16.866-16.836-29.485-33.672-42.104-12.649-12.65-29.485-25.3-42.104-29.486-8.433-4.216-12.65-4.216-21.082-8.433-8.403-4.216-21.022-4.216-29.455-4.216h-4.217c-8.433 0-21.052 0-29.485 4.216-12.62 4.217-25.239 8.433-33.672 16.866-4.216 4.217-12.649 8.433-16.865 16.836-4.187 4.217-12.59 8.433-16.806 12.65l-8.433 8.432-33.672 29.425-4.216 4.217L602.112 640l-46.32 42.104-42.105 37.888c-12.65 12.65-21.083 21.083-33.702 29.486l-4.217 8.433c-8.402 8.402-12.619 16.835-21.022 21.052-4.216 4.216-8.433 12.62-12.65 21.022-4.216 4.216-4.216 12.65-8.432 25.299-4.216 8.403-4.216 16.805-8.433 29.455-4.186 8.433-4.186 21.052-8.373 29.485-4.216 12.62-4.216 21.022-8.433 29.455-4.216 25.269 0 42.105 12.65 58.94 8.403 8.433 25.238 25.269 58.94 25.269h16.836c8.433 0 16.836-4.216 29.455-4.216 12.65-4.217 21.082-4.217 33.702-8.433 12.649-4.217 21.052-8.403 33.671-12.62 12.65-4.216 21.082-8.433 29.485-12.619 8.433-4.216 16.836-8.433 25.269-16.866 4.216-4.216 12.62-8.403 16.836-12.62l16.835-16.865 29.456-29.425c12.649-8.433 25.298-21.082 42.104-37.918l46.32-42.105 122.128-113.664L960 652.62c4.216-4.216 8.433-4.216 12.65-8.433l21.022-21.022c8.432-8.433 16.865-21.052 21.082-29.515 4.216-8.403 4.216-21.022 4.216-33.641-8.433-4.217-8.433-12.65-12.65-21.083z"/></svg>