<svg class="icon" viewBox="0 0 1024 1024" xmlns="http://www.w3.org/2000/svg" width="200" height="200"><defs><style/></defs><path d="M746.974 426.47l-.512-.127a104.928 104.928 0 00-115.78-116.087 45.554 45.554 0 01-40.691-12.54 45.35 45.35 0 010-64.288 45.298 45.298 0 0123.11-12.387l-.052-.204c58.862-8.01 122.92 9.776 168.142 54.767a195.474 195.474 0 0155.996 163.023 45.222 45.222 0 01-13.206 28.305 45.682 45.682 0 01-64.467 0 45.375 45.375 0 01-12.54-40.436zM911.48 477.58h-.025c21.6-89.394 3.02-199.288-66.95-269.078a274.094 274.094 0 00-273.582-68.127 45.554 45.554 0 01-5.553 1.766v-.051a45.631 45.631 0 01-42.919-12.028 45.35 45.35 0 0118.427-75.498v-.102c125.99-39.463 269.18-11.005 369.22 88.55 97.072 96.943 118.774 242.077 87.27 365.56a364.588 364.588 0 00-.307-.128 45.682 45.682 0 01-75.958 19.245 45.375 45.375 0 01-9.623-50.11zm81.204 399.29a218.251 218.251 0 01-177.508 144.725 40.385 40.385 0 01-11.004 1.869c-3.148 0-6.373.23-9.598.23-431.742 0-781.845-347.953-781.845-778.646 0-5.349.077-10.672.205-16.02a253.287 253.287 0 01-.205-9.317c0-91.134 55.817-169.165 135.128-202.307A217.483 217.483 0 01233.592.001c120.437 0 218.149 97.455 218.149 217.61v1.997c0 101.806-69.611 187.259-163.893 211.828 44.12 144.033 149.408 260.964 285.124 321.44a219.684 219.684 0 01213.056-165.941c121.205 0 219.48 98.018 219.48 218.942 0 20.653-2.867 40.564-8.241 59.45a45.424 45.424 0 01-4.556 11.543z"/></svg>