<svg class="icon" viewBox="0 0 1024 1024" xmlns="http://www.w3.org/2000/svg" width="100" height="100"><defs><style/></defs><path d="M558.395 687.222c-12.012-11.855-27.175-17.762-45.45-17.762-18.038 0-33.201 5.829-45.607 17.526-12.446 11.736-18.55 26.742-18.55 45.016 0 17.527 6.026 32.414 18.314 44.623 12.209 12.21 28.79 18.275 49.506 18.275 16.423 0 30.523-6.105 42.22-18.275 11.737-12.17 17.605-27.057 17.605-44.623.04-18.038-5.947-32.964-18.038-44.82v.04zM454.892 219.53l12.8 392.113h88.537l13.509-392.113H454.892zM512 1024C229.297 1024 0 794.742 0 512S229.297 0 512 0c282.782 0 512 229.258 512 512s-229.218 512-512 512z"/></svg>