<svg class="icon" viewBox="0 0 1024 1024" xmlns="http://www.w3.org/2000/svg" width="200" height="200"><defs><style/></defs><path d="M967.111 0A56.889 56.889 0 011024 56.889V967.11A56.889 56.889 0 01967.111 1024H56.89A56.889 56.889 0 010 967.111V56.89A56.889 56.889 0 0156.889 0H967.11zM614.4 230.4H307.456a25.6 25.6 0 00-25.856 25.657v519.452c0 9.984 7.993 18.091 18.062 18.091h424.676c9.955 0 18.062-8.021 18.062-17.835V358.4H632.576a17.948 17.948 0 01-18.176-18.176V230.4zm51.2 384V640H358.4v-25.6h307.2zm0-76.8v25.6H358.4v-25.6h307.2zm0-76.8v25.6H358.4v-25.6h307.2zM640 230.4v93.668a8.716 8.716 0 008.732 8.732H742.4L640 230.4z"/></svg>