<svg class="icon" viewBox="0 0 1024 1024" xmlns="http://www.w3.org/2000/svg" width="200" height="200"><defs><style/></defs><path d="M967.111 0A56.889 56.889 0 011024 56.889V967.11A56.889 56.889 0 01967.111 1024H56.89A56.889 56.889 0 010 967.111V56.89A56.889 56.889 0 0156.889 0H967.11zM588.8 563.2l-153.6.085v51.655h51.03v55.097a76.828 76.828 0 1052.138.2v-55.268H588.8V563.2zM512 716.8a25.6 25.6 0 110 51.2 25.6 25.6 0 010-51.2zm-76.63-256l-.17 51.2h153.6v-50.972l-153.43-.228zM588.8 358.4l-153.43.17-.17 51.03h153.6v-51.2zm0-102.4l-153.43.142-.17 51.058h153.6V256zm0-102.4l-153.43.142-.17 51.058h153.6v-51.2z"/></svg>